<?xml version="1.0" encoding="UTF-8" standalone="no"?>
<!-- Created with Inkscape (http://www.inkscape.org/) -->

<svg
   xmlns:dc="http://purl.org/dc/elements/1.1/"
   xmlns:cc="http://creativecommons.org/ns#"
   xmlns:rdf="http://www.w3.org/1999/02/22-rdf-syntax-ns#"
   xmlns:svg="http://www.w3.org/2000/svg"
   xmlns="http://www.w3.org/2000/svg"
   xmlns:sodipodi="http://sodipodi.sourceforge.net/DTD/sodipodi-0.dtd"
   xmlns:inkscape="http://www.inkscape.org/namespaces/inkscape"
   width="210mm"
   height="297mm"
   viewBox="0 0 210 297"
   version="1.1"
   id="svg8"
   inkscape:version="0.92.0 r15299"
   sodipodi:docname="Zeichnung-AC.svg">
  <defs
     id="defs2" />
  <sodipodi:namedview
     id="base"
     pagecolor="#ffffff"
     bordercolor="#666666"
     borderopacity="1.0"
     inkscape:pageopacity="0.0"
     inkscape:pageshadow="2"
     inkscape:zoom="0.35"
     inkscape:cx="400"
     inkscape:cy="560"
     inkscape:document-units="mm"
     inkscape:current-layer="layer1"
     showgrid="false"
     inkscape:window-width="706"
     inkscape:window-height="639"
     inkscape:window-x="422"
     inkscape:window-y="294"
     inkscape:window-maximized="0" />
  <metadata
     id="metadata5">
    <rdf:RDF>
      <cc:Work
         rdf:about="">
        <dc:format>image/svg+xml</dc:format>
        <dc:type
           rdf:resource="http://purl.org/dc/dcmitype/StillImage" />
        <dc:title></dc:title>
      </cc:Work>
    </rdf:RDF>
  </metadata>
  <g
     inkscape:label="Ebene 1"
     inkscape:groupmode="layer"
     id="layer1">
    <path
       style="fill:#000000;stroke-width:0.08466666"
       d="m 103.94043,219.55655 c -15.716576,-0.90387 -30.720406,-6.86435 -44.746326,-17.77606 -5.91585,-4.60234 -11.7896,-10.3208 -16.05608,-15.63156 -0.55234,-0.68754 -1.00426,-1.27408 -1.00426,-1.30341 0,-0.0293 0.2358,0.20933 0.52401,0.5304 0.95665,1.06572 4.3232,4.43083 5.78366,5.78121 12.15668,11.24028 25.28342,18.56508 37.63433,21.00017 4.57277,0.90157 8.69409,1.11511 12.32796,0.63875 6.051726,-0.79331 9.961266,-3.34871 10.922886,-7.13953 0.11222,-0.44236 0.22073,-0.82099 0.24114,-0.8414 0.0204,-0.0204 0.0612,0.0722 0.0907,0.20572 0.22512,1.02005 0.73898,2.17487 1.35129,3.03682 0.47838,0.6734 1.71802,1.85551 2.45569,2.34171 4.02581,2.65342 10.23278,3.25247 18.71133,1.80587 3.13369,-0.53466 4.25592,-0.82093 7.3578,-1.87684 10.50943,-3.57753 20.67296,-9.66499 29.93713,-17.9309 1.56863,-1.3996 4.45463,-4.24584 5.75512,-5.67584 1.63718,-1.80021 1.66506,-1.82832 1.21812,-1.22766 -1.5983,2.14794 -4.87729,5.78103 -7.83541,8.68157 -10.26109,10.06132 -22.01908,17.5268 -34.06209,21.62698 -5.05285,1.72029 -10.01847,2.84577 -15.113,3.42544 -2.94169,0.3347 -4.3148,0.38702 -9.73667,0.37099 -2.91041,-0.009 -5.50121,-0.0277 -5.75733,-0.0424 z"
       id="path36" />
    <path
       style="fill:#000000;stroke-width:0.08466666"
       d="m 102.54343,206.47831 c -0.60537,-0.0916 -2.03412,-0.35183 -3.174996,-0.57838 -15.49652,-3.07719 -29.79952,-10.2297 -39.87724,-19.94142 -0.62907,-0.60621 -1.41046,-1.31621 -1.73643,-1.57775 -1.6609,-1.33267 -3.62473,-2.27429 -5.65671,-2.71229 -0.71301,-0.15369 -1.13429,-0.18594 -2.42895,-0.18594 -1.65174,0 -2.58599,0.13357 -3.76048,0.53766 -0.27535,0.0947 -0.5161,0.15679 -0.53499,0.1379 -0.0189,-0.0189 0.0431,-0.18624 0.13785,-0.37189 0.51572,-1.01089 1.23279,-3.06515 1.70548,-4.88587 0.7279,-2.8037 1.01187,-4.96719 1.07394,-8.18206 0.0753,-3.90175 -0.2814,-6.95302 -1.2526,-10.71396 -0.3618,-1.40105 -1.32923,-4.26422 -1.88293,-5.57265 -0.25619,-0.60536 -0.45684,-1.10999 -0.44591,-1.1214 0.0109,-0.0114 0.436,0.23003 0.94459,0.5365 3.81892,2.30127 8.3964,3.47994 12.3218,3.17278 6.84089,-0.53529 12.50638,-4.66414 17.2356,-12.5608 1.90595,-3.18247 1.54149,-2.31037 18.96362,-45.377908 8.886656,-21.96782 16.181776,-39.941494 16.211376,-39.941494 0.0475,0 28.42122,70.873132 29.96392,74.845332 2.99581,7.7137 6.29299,12.71391 10.74939,16.3016 1.66477,1.34024 4.04489,2.68099 6.05367,3.4101 1.10298,0.40034 3.03373,0.88783 4.27566,1.07957 1.20435,0.18592 4.51269,0.25681 5.90612,0.12653 2.13044,-0.19918 5.42909,-0.87826 7.21034,-1.48438 0.34547,-0.11755 0.64413,-0.19772 0.6637,-0.17815 0.0196,0.0196 -0.21233,0.65766 -0.51533,1.41798 -3.02145,7.58186 -3.80054,15.47143 -2.2518,22.80308 0.40356,1.91041 1.16382,4.39379 1.85089,6.04589 0.14347,0.34497 0.24541,0.64267 0.22653,0.66154 -0.0189,0.0189 -0.35258,-0.0607 -0.74155,-0.17675 -3.44637,-1.0286 -7.03161,-0.49181 -10.39768,1.55679 -1.21966,0.74228 -2.2496,1.57593 -3.80523,3.08003 -2.19343,2.12078 -3.72642,3.42291 -5.80832,4.93366 -8.98981,6.52351 -21.26907,11.72584 -33.72122,14.28659 -1.69357,0.34828 -4.3021,0.81867 -4.47496,0.80696 -0.0402,-0.003 0.95555,-0.26531 2.21285,-0.58353 4.8918,-1.23806 8.79794,-2.63086 12.70852,-4.53141 9.31179,-4.52557 14.53708,-10.24109 15.7928,-17.27444 0.16776,-0.93964 0.19581,-1.37318 0.19173,-2.96333 -0.01,-3.81738 -0.82285,-7.60064 -2.27183,-10.57126 -0.20766,-0.42574 -4.30015,-10.18478 -9.09443,-21.68674 -4.79427,-11.50197 -11.00013,-26.38002 -13.79081,-33.06233 -2.79067,-6.68232 -7.03296,-16.844878 -9.4273,-22.583458 -2.39434,-5.73859 -4.3724,-10.43413 -4.39568,-10.43455 -0.0233,-4.2e-4 -0.51309,1.28485 -1.08846,2.85613 -15.662036,42.771658 -23.318406,63.902418 -29.309126,80.890068 -1.11096,3.15032 -2.13578,6.12553 -2.27737,6.61157 -2.10462,7.2248 -0.8847,13.74261 3.6199,19.34044 4.70392,5.84551 13.60568,10.81793 24.440716,13.6523 1.40751,0.36819 1.31423,0.41312 -0.33866,0.16314 z"
       id="path32" />
  </g>
</svg>
